<svg xmlns="http://www.w3.org/2000/svg" width="200" height="200" class="icon" viewBox="0 0 1024 1024"><path fill="#ffb724" d="M448 373.333a96 96 0 1 0 192 0 96 96 0 1 0-192 0"/><path fill="#3a3e46" d="M544 64c-181.333 0-330.667 162.133-330.667 362.667v6.4L160 548.267c-2.133 4.266-2.133 10.666 0 17.066 2.133 4.267 6.4 10.667 10.667 12.8L256 618.667v151.466c0 12.8 8.533 21.334 21.333 21.334H384V940.8c0 12.8 8.533 21.333 21.333 21.333H704c12.8 0 21.333-8.533 21.333-21.333V731.733C819.2 663.467 874.667 550.4 874.667 428.8 874.667 226.133 725.333 64 544 64m10.667 42.667c140.8 6.4 256 123.733 275.2 277.333h-83.2v-10.667c0-42.666-12.8-85.333-38.4-119.466-8.534-12.8-19.2-23.467-29.867-32C644.267 192 601.6 174.933 554.667 172.8zm93.866 147.2c8.534 8.533 17.067 17.066 23.467 25.6 21.333 27.733 32 59.733 32 93.866 0 87.467-72.533 160-160 160-42.667 0-81.067-17.066-110.933-44.8l38.4-38.4C490.667 467.2 516.267 480 544 480c59.733 0 106.667-46.933 106.667-106.667S603.733 266.667 544 266.667c-19.2 0-38.4 6.4-55.467 14.933l-38.4-38.4c25.6-19.2 57.6-29.867 93.867-29.867 38.4 0 76.8 14.934 104.533 40.534m-38.4 170.666-29.866-29.866c4.266-6.4 6.4-12.8 6.4-21.334 0-23.466-19.2-42.666-42.667-42.666s-42.667 19.2-42.667 42.666S520.533 416 544 416c8.533 0 14.933-2.133 21.333-6.4l29.867 29.867c-14.933 10.666-32 19.2-51.2 19.2-46.933 0-85.333-38.4-85.333-85.334S497.067 288 544 288s85.333 38.4 85.333 85.333c0 19.2-6.4 38.4-19.2 51.2M544 394.667c-12.8 0-21.333-8.534-21.333-21.334S531.2 352 544 352s21.333 8.533 21.333 21.333S556.8 394.667 544 394.667m-106.667-21.334c0 23.467 8.534 44.8 19.2 61.867l-38.4 38.4C396.8 445.867 384 411.733 384 373.333c0-44.8 19.2-87.466 51.2-115.2l38.4 38.4c-23.467 17.067-36.267 44.8-36.267 76.8m262.4 322.134-8.533 6.4c-6.4 4.266-8.533 10.666-8.533 17.066v198.4h-256V768c0-12.8-8.534-21.333-21.334-21.333H298.667V603.733q0-12.8-12.8-19.2l-78.934-36.266L253.867 448c2.133-2.133 2.133-6.4 2.133-8.533V428.8c0-172.8 123.733-313.6 277.333-320v64c-106.666 6.4-192 93.867-192 202.667 0 110.933 91.734 202.666 202.667 202.666 100.267 0 183.467-74.666 200.533-170.666H832V428.8c0 106.667-49.067 206.933-132.267 266.667"/></svg>