<?xml version="1.0" standalone="no"?><!DOCTYPE svg PUBLIC "-//W3C//DTD SVG 1.1//EN" "http://www.w3.org/Graphics/SVG/1.1/DTD/svg11.dtd"><svg t="1752821780693" class="icon" viewBox="0 0 1024 1024" version="1.1" xmlns="http://www.w3.org/2000/svg" p-id="14491" xmlns:xlink="http://www.w3.org/1999/xlink" width="200" height="200"><path d="M511.38061813 566.51944812l-29.75952376-76.31877937-29.75952374 76.31877937h59.51904749z m57.74307562 140.49375188l-34.655445-84.09465469h-105.59831062l-33.21546844 84.09465469H329.51152813L454.069535 401.11409375H507.68467719l127.58195906 305.94710531H569.12369375z" fill="#707070" p-id="14492"></path><path d="M633.25066813 707.0132h60.81502687V401.11409375h-60.81502687z" fill="#707070" p-id="14493"></path><path d="M623.84281906 142.73422813a431.99308781 431.99308781 0 1 0 305.41911282 529.0475353l-92.73451594-24.81560249a335.99462438 335.99462438 0 1 1-237.59619844-411.49741688l24.86360156-92.73451593z" fill="#707070" p-id="14494"></path><path d="M823.99961657 103.99884781V32h47.99923124v71.99884781H943.99769657v47.99923219h-71.99884876V223.99692781h-47.99923126V151.99808H752.00076781v-47.99923219h71.99884876z" fill="#707070" p-id="14495"></path></svg>