<svg xmlns="http://www.w3.org/2000/svg" width="200" height="200" class="icon" viewBox="0 0 1024 1024"><path fill="#a6a6a6" d="M512.6 992c-18 0-36.2-1-54.5-3C254.8 966.9 61.4 776.9 35.9 574.2c-18.8-149.5 31-295.9 136.7-401.6C278.2 66.9 424.7 17 574.2 35.9 776.6 61.4 966.5 254.5 989 457.5c12.1 109.5-11.8 215.6-69.1 307.7 12.1 44.1 46 161 46 161 3.2 11.2.1 23.3-8.1 31.5s-20.3 11.4-31.5 8.1c0 0-117.2-33.9-160.5-46.3-76.7 47.9-163.2 72.5-253.2 72.5m-.3-896c-110.5 0-215.6 43-294.5 121.8C126.2 309.4 83 436.4 99.4 566.2 121.1 738.7 292 906.6 465.1 925.4c97.8 10.7 192.3-11.7 273.5-64.5 10.6-6.9 23.9-8.8 36.4-5.3 19.3 5.5 71.9 20.7 113.3 32.7-12-41.7-27.2-94.9-32.6-115-3.2-12.1-1.1-25 5.8-35.5 52.5-81 74.6-175.5 63.8-273.2-19-172.9-186.9-343.5-359.1-365.2-18-2.3-36.1-3.4-53.9-3.4m402.9 676.4c0 .1-.1.1-.1.2.1 0 .1-.1.1-.2"/><path fill="#a6a6a6" d="M336 544c-26.5 0-48-21.5-48-48s21.5-48 48-48 48 21.5 48 48-21.6 48-48 48m192 0c-26.5 0-48-21.5-48-48s21.5-48 48-48 48 21.5 48 48-21.6 48-48 48m192 0c-26.5 0-48-21.5-48-48s21.5-48 48-48 48 21.5 48 48-21.6 48-48 48"/></svg>