<svg xmlns="http://www.w3.org/2000/svg" width="200" height="200" class="icon" viewBox="0 0 1024 1024"><path fill="#4adf9e" d="M191.6 83.4c-47.4 22.4-85.8 60.8-108.2 108.2z"/><path fill="#49df9e" d="M228.8 69.7C151.6 90.5 90.5 151.6 69.7 228.8z"/><path fill="#48df9f" d="M258.2 63.9c-100.8 13-181.3 93.5-194.4 194.4z"/><path fill="#47e09f" d="M283.6 62C162.5 63.9 63.9 162.5 62 283.6z"/><path fill="#46e09f" d="M307.2 62H287C163.3 62 62 163.3 62 287v20.2z"/><path fill="#45e09f" d="M330.7 62H287C163.3 62 62 163.3 62 287v43.7z"/><path fill="#44e0a0" d="M354.2 62H287C163.3 62 62 163.3 62 287v67.2z"/><path fill="#43e0a0" d="M377.8 62H287C163.3 62 62 163.3 62 287v90.8z"/><path fill="#42e0a0" d="M401.3 62H287C163.3 62 62 163.3 62 287v114.3z"/><path fill="#41e0a0" d="M424.9 62H287C163.3 62 62 163.3 62 287v137.9z"/><path fill="#40e1a1" d="M448.4 62H287c-39.8 0-77.3 10.5-109.8 28.8l-86.4 86.4C72.5 209.7 62 247.2 62 287v161.4z"/><path fill="#3fe1a1" d="M472 62H287c-23.7 0-46.5 3.7-68 10.6L72.6 219C65.7 240.5 62 263.3 62 287v185z"/><path fill="#3ee1a1" d="M495.5 62H287c-12.6 0-24.9 1.1-37 3.1l-185 185c-2 12-3.1 24.4-3.1 37v208.5z"/><path fill="#3de1a1" d="M519.1 62H287c-3.6 0-7.1.1-10.6.3L62.3 276.4c-.2 3.5-.3 7-.3 10.6v232.1z"/><path fill="#3ce1a2" d="M62 542.6 542.6 62H300.2L62 300.2z"/><path fill="#3be1a2" d="M62 566.2 566.2 62H323.8L62 323.8z"/><path fill="#3ae1a2" d="M62 589.7 589.7 62H347.3L62 347.3z"/><path fill="#39e2a2" d="M62 613.3 613.3 62H370.8L62 370.8z"/><path fill="#38e2a3" d="M62 636.8 636.8 62H394.4L62 394.4z"/><path fill="#37e2a3" d="M62 417.9v242.5L660.4 62H417.9z"/><path fill="#36e2a3" d="M62 441.5v242.4L683.9 62H441.5z"/><path fill="#35e2a3" d="M62 465v242.5L707.5 62H465z"/><path fill="#34e2a3" d="M62 488.6V731L731 62H488.6z"/><path fill="#33e2a4" d="M737 62H512.1L62 512.1V737c0 5.7.2 11.3.6 16.9L753.9 62.6c-5.6-.4-11.2-.6-16.9-.6"/><path fill="#32e3a4" d="M737 62H535.7L62 535.7V737c0 12.9 1.1 25.5 3.2 37.9L774.9 65.2c-12.4-2.1-25-3.2-37.9-3.2"/><path fill="#31e3a4" d="M737 62H559.2L62 559.2V737c0 19.8 2.6 38.9 7.4 57.2L794.2 69.4C775.9 64.6 756.8 62 737 62"/><path fill="#30e3a4" d="M737 62H582.8L62 582.8V737c0 26.3 4.6 51.6 13 75.2L812.2 75c-23.6-8.4-48.9-13-75.2-13"/><path fill="#2fe3a5" d="M737 62H606.3L62 606.3V737c0 32.7 7.1 63.8 19.8 92L829 81.8C800.8 69.1 769.7 62 737 62"/><path fill="#2ee3a5" d="M844.7 89.6C812.6 72 775.9 62 737 62H629.9L62 629.9V737c0 38.9 10 75.6 27.6 107.7z"/><path fill="#2de3a5" d="M859.4 98.5C824.1 75.4 782 62 737 62h-83.6L62 653.4V737c0 45 13.4 87.1 36.5 122.4z"/><path fill="#2ce3a5" d="M873.2 108.2C835.3 79.3 788.1 62 737 62h-60L62 677v60c0 51.1 17.3 98.3 46.2 136.2z"/><path fill="#2be4a6" d="M886.1 118.8C846.3 83.5 794 62 737 62h-36.5L62 700.5V737c0 57 21.5 109.3 56.8 149.1z"/><path fill="#2ae4a6" d="M737 62h-12.9L62 724.1V737c0 63 26.3 120.2 68.4 161.1l767.8-767.8C857.2 88.3 800 62 737 62"/><path fill="#29e4a6" d="M62.2 747.4c3 64.8 33.7 122.7 80.5 161.9l766.6-766.6C870 95.9 812.2 65.2 747.4 62.2z"/><path fill="#28e4a6" d="M64.3 768.9c8.9 61.8 43.1 115.7 91.7 150.7L919.6 156c-35-48.6-88.9-82.8-150.7-91.7z"/><path fill="#27e4a7" d="M68 788.7c14 59.1 51.5 109.4 102.1 140.4l758.9-759c-30.9-50.5-81.2-88-140.4-102.1z"/><path fill="#26e4a7" d="M73.2 807c18.7 56.7 59.4 103.6 111.9 130.5l752.3-752.3c-26.8-52.5-73.7-93.3-130.4-112z"/><path fill="#25e5a7" d="M79.7 824.1c23.1 54.4 67 98.1 121.6 120.8l743.6-743.6c-22.7-54.6-66.3-98.6-120.8-121.6z"/><path fill="#25e5a7" d="M87.2 840.1c27.2 52.3 74.4 92.8 131.3 111.1l732.8-732.8C933 161.5 892.5 114.3 840.2 87.1z"/><path fill="#24e5a7" d="M95.8 855.1c31.3 50.3 81.9 87.6 141.2 101.2L956.3 237c-13.6-59.4-50.8-110-101.2-141.2z"/><path fill="#23e5a8" d="M256.9 960 960 256.9c-8.4-62-42.3-116.3-90.8-151.6l-764 764c35.4 48.3 89.6 82.3 151.7 90.7"/><path fill="#22e5a8" d="m278.6 961.8 683.3-683.3c-2.4-65.1-32.8-123.3-79.5-162.9L115.6 882.4c39.7 46.6 97.9 77 163 79.4"/><path fill="#21e5a8" d="M962 287c0-62.5-25.8-119.3-67.3-160.1L126.9 894.7C167.7 936.2 224.5 962 287 962h14.9L962 301.9z"/><path fill="#20e5a8" d="M962 287c0-56.5-21.1-108.4-55.9-148L139 906.1c39.6 34.8 91.5 55.9 148 55.9h38.5L962 325.5z"/><path fill="#1fe6a9" d="M962 287c0-50.6-16.9-97.4-45.3-135L152 916.7c37.7 28.4 84.5 45.3 135 45.3h62l613-613z"/><path fill="#1ee6a9" d="M962 287c0-44.5-13.1-86.1-35.7-121.2L165.8 926.3c35 22.5 76.6 35.7 121.2 35.7h85.6L962 372.6z"/><path fill="#1de6a9" d="M962 287c0-38.4-9.8-74.6-26.9-106.4L180.6 935.1c31.7 17.2 68 26.9 106.4 26.9h109.1L962 396.1z"/><path fill="#1ce6a9" d="M287 962h132.7L962 419.7V287c0-32.2-6.9-62.8-19.2-90.6L196.4 942.8c27.8 12.3 58.4 19.2 90.6 19.2"/><path fill="#1be6aa" d="M287 962h156.2L962 443.2V287c0-25.8-4.4-50.6-12.5-73.7L213.3 949.5c23.1 8.1 47.9 12.5 73.7 12.5"/><path fill="#1ae6aa" d="M287 962h179.8L962 466.8V287c0-19.2-2.4-37.8-7-55.6L231.4 955c17.8 4.6 36.4 7 55.6 7"/><path fill="#19e6aa" d="M287 962h203.3L962 490.3V287c0-12.3-1-24.4-2.9-36.2L250.8 959.1c11.8 1.9 23.9 2.9 36.2 2.9"/><path fill="#18e7aa" d="M287 962h226.9L962 513.9V287c0-5.1-.2-10.1-.5-15L272 961.5c4.9.3 9.9.5 15 .5"/><path fill="#17e7ab" d="M537.4 962 962 537.4V295L295 962z"/><path fill="#16e7ab" d="m561 962 401-401V318.5L318.5 962z"/><path fill="#15e7ab" d="M584.5 962 962 584.5V342.1L342.1 962z"/><path fill="#14e7ab" d="M608.1 962 962 608.1V365.6L365.6 962z"/><path fill="#13e7ab" d="M631.6 962 962 631.6V389.2L389.2 962z"/><path fill="#12e7ac" d="M655.2 962 962 655.2V412.7L412.7 962z"/><path fill="#11e8ac" d="M678.7 962 962 678.7V436.3L436.3 962z"/><path fill="#10e8ac" d="M702.2 962 962 702.2V459.8L459.8 962z"/><path fill="#0fe8ac" d="M725.8 962 962 725.8V483.4L483.4 962z"/><path fill="#0ee8ad" d="M962 737V506.9L506.9 962H737c4.3 0 8.5-.1 12.7-.4l211.9-211.9c.3-4.2.4-8.4.4-12.7"/><path fill="#0de8ad" d="M962 737V530.5L530.5 962H737c13.4 0 26.6-1.2 39.4-3.5l182.2-182.2c2.2-12.7 3.4-25.9 3.4-39.3"/><path fill="#0ce8ad" d="M962 737V554L554 962h183c24.8 0 48.6-4.1 71-11.6L950.4 808c7.5-22.4 11.6-46.2 11.6-71"/><path fill="#0be8ad" d="M962 737V577.6L577.6 962H737c41.8 0 80.9-11.5 114.6-31.6l78.9-78.9c20-33.6 31.5-72.7 31.5-114.5"/><path fill="#0ae9ae" d="M962 601.1 601.1 962H737c123.8 0 225-101.3 225-225z"/><path fill="#09e9ae" d="M962 624.7 624.7 962H737c123.8 0 225-101.3 225-225z"/><path fill="#08e9ae" d="M962 648.2 648.2 962H737c123.8 0 225-101.3 225-225z"/><path fill="#07e9ae" d="M962 671.8 671.8 962H737c123.8 0 225-101.3 225-225z"/><path fill="#06e9af" d="M962 695.3 695.3 962H737c123.8 0 225-101.3 225-225z"/><path fill="#05e9af" d="M962 718.8 718.8 962H737c123.8 0 225-101.3 225-225z"/><path fill="#04e9af" d="M961.9 742.5 742.5 961.9c119.4-2.9 216.5-100 219.4-219.4"/><path fill="#03eaaf" d="M959.8 768.1 768.1 959.8c99-13.8 177.9-92.7 191.7-191.7"/><path fill="#02eab0" d="M953.6 797.9 797.9 953.6c75-21.3 134.4-80.7 155.7-155.7"/><path fill="#01eab0" d="M938.7 836.3 836.3 938.7c44.3-21.9 80.5-58.1 102.4-102.4"/><path fill="#caf6e1" d="M682.5 737.1H340.2c-19.8 0-35.9-16.1-35.9-35.9V323c0-19.8 16.1-35.9 35.9-35.9H550c4.4 0 8.7 1.6 12 4.6l150.3 143.1c3.8 3.4 6 8.3 6 13.4v253.1c0 19.8-16 35.8-35.8 35.8"/><path fill="#f6fdfa" d="M628.3 656.1h-234c-9.9 0-18-8.1-18-18s8.1-18 18-18h234c9.9 0 18 8.1 18 18s-8.1 18-18 18M456.5 539.8l13.1-87.3c.5-3.5 2.2-6.8 4.7-9.3L621 296.4c13.3-13.3 35.6-12.6 49.6 1.4l38.2 38.2c14 14 14.6 36.3 1.4 49.6L563.4 532.3c-2.5 2.5-5.8 4.2-9.3 4.7l-87.4 13c-6 .9-11.1-4.2-10.2-10.2"/></svg>