<svg xmlns="http://www.w3.org/2000/svg" width="200" height="200" class="icon" viewBox="0 0 1024 1024"><path fill="#42b721" d="M563.2 51.2c226.227 0 409.6 183.373 409.6 409.6v409.6a102.4 102.4 0 0 1-102.4 102.4H460.8c-226.227 0-409.6-183.373-409.6-409.6V460.8c0-226.227 183.373-409.6 409.6-409.6zm130.56 191.744a48.51 48.51 0 0 0-59.392 34.304l-28.672 106.957A39 39 0 0 0 601.6 384h-89.42l21.862-81.638a48.512 48.512 0 0 0-93.696-25.088l-28.621 106.7L268.8 384a38.4 38.4 0 0 0 0 76.8h122.342l-34.304 128H268.8a38.4 38.4 0 0 0 0 76.8h67.456l-21.453 80.18a48.512 48.512 0 0 0 93.696 25.087L436.736 665.6h93.568l-21.453 80.205a48.512 48.512 0 0 0 93.696 25.088L630.733 665.6H755.2a38.4 38.4 0 0 0 0-76.8H651.315l76.749-286.464a48.51 48.51 0 0 0-34.304-59.392M585.165 460.8l-34.304 128h-93.568l34.304-128zM780.8 384a38.4 38.4 0 1 0 0 76.8 38.4 38.4 0 0 0 0-76.8" class="selected" data-spm-anchor-id="a313x.search_index.0.i63.26d33a81wfoRWj"/></svg>