<svg xmlns="http://www.w3.org/2000/svg" width="200" height="200" class="icon" viewBox="0 0 1024 1024"><path fill="#a6a6a6" d="M535.313 691.877c45.807 0 82.934 37.074 82.934 82.805 0 45.714-37.127 82.788-82.934 82.788-45.8 0-82.925-37.074-82.925-82.788 0-45.73 37.125-82.805 82.925-82.805m-5.851-268.62c45.807 0 82.934 37.073 82.934 82.804 0 45.715-37.127 82.788-82.934 82.788-45.808 0-82.925-37.073-82.925-82.788 0-45.731 37.117-82.804 82.925-82.804m0-256.954c45.807 0 82.934 37.074 82.934 82.805 0 45.714-37.127 82.788-82.934 82.788-45.808 0-82.925-37.074-82.925-82.788 0-45.731 37.117-82.805 82.925-82.805"/></svg>