<svg xmlns="http://www.w3.org/2000/svg" width="200" height="200" class="icon" viewBox="0 0 1024 1024"><path d="M785.271 238.86C712.278 165.866 615.228 125.668 512 125.668S311.722 165.866 238.729 238.86c-72.993 72.993-113.193 170.043-113.193 273.27 0 25.733 2.547 51.462 7.571 76.48 2.625 13.079 15.353 21.548 28.437 18.926 13.079-2.627 21.552-15.36 18.926-28.437-4.397-21.893-6.626-44.425-6.626-66.968 0-186.46 151.696-338.156 338.156-338.156s338.157 151.696 338.157 338.156S698.46 850.287 512 850.287c-68.471 0-134.409-20.35-190.684-58.849-11.01-7.533-26.04-4.71-33.573 6.296-7.533 11.012-4.713 26.043 6.297 33.575 64.343 44.019 139.714 67.286 217.96 67.286 103.228 0 200.278-40.2 273.271-113.193 72.992-72.994 113.193-170.043 113.193-273.271 0-103.227-40.2-200.278-113.193-273.271M286.964 512.407c.02 13.329 10.83 23.913 24.154 23.913h.033l175.842-.173.239 171.867c.02 13.33 10.829 24.145 24.154 24.145h.033c13.34 0 24.14-11.04 24.121-24.38l-.239-171.68 167.145-.166c13.34-.019 24.14-10.693 24.122-24.033-.018-13.327-10.83-24.22-24.153-24.22h-.033l-167.145.232-.24-171.618c-.02-13.328-10.83-24.453-24.153-24.453h-.034c-13.34 0-24.139 11.194-24.12 24.534l.237 171.605-175.84.243c-13.341.018-24.14 10.844-24.123 24.184"/></svg>