<?xml version="1.0" standalone="no"?><!DOCTYPE svg PUBLIC "-//W3C//DTD SVG 1.1//EN" "http://www.w3.org/Graphics/SVG/1.1/DTD/svg11.dtd"><svg t="1752821213529" class="icon" viewBox="0 0 1024 1024" version="1.1" xmlns="http://www.w3.org/2000/svg" p-id="8795" xmlns:xlink="http://www.w3.org/1999/xlink" width="200" height="200"><path d="M429.568 959.424a35.712 35.712 0 0 1-35.712-35.712v-262.72a35.712 35.712 0 0 1 44.032-34.688l366.336 87.488 76.544-545.92L193.728 565.504l123.52 31.808a35.712 35.712 0 0 1-17.728 69.12l-208.128-53.504a35.712 35.712 0 0 1-8.96-65.472l826.048-478.08a35.776 35.776 0 0 1 53.184 35.84l-92.16 657.408a35.648 35.648 0 0 1-43.712 29.76L465.28 706.24v135.168l72.96-68.352a35.712 35.712 0 0 1 48.832 52.096l-133.12 124.672a35.648 35.648 0 0 1-24.32 9.6z m0-262.72a35.712 35.712 0 0 1-26.56-59.52l189.568-211.904a35.712 35.712 0 1 1 53.248 47.552L456.192 684.8a35.648 35.648 0 0 1-26.624 11.904z" fill="#707070" opacity=".4" p-id="8796"></path></svg>