<?xml version="1.0" standalone="no"?><!DOCTYPE svg PUBLIC "-//W3C//DTD SVG 1.1//EN" "http://www.w3.org/Graphics/SVG/1.1/DTD/svg11.dtd"><svg t="1752814287450" class="icon" viewBox="0 0 1024 1024" version="1.1" xmlns="http://www.w3.org/2000/svg" p-id="3197" xmlns:xlink="http://www.w3.org/1999/xlink" width="200" height="200"><path d="M379.637656 519.019961 803.31583 95.343834c19.469684-19.468661 19.896297-50.606243 0.957576-69.542917l-11.869438-11.874553c-18.94179-18.935652-50.077325-18.508016-69.544964 0.957576L253.75941 483.984555c-1.300298 1.300298-2.508521 2.656864-3.640016 4.053328-7.597177 9.09697-11.342567 20.315748-11.237193 31.510995-0.021484 12.38301 4.598614 24.658599 13.919632 33.979617l11.870461 11.871484c1.270629 1.269606 2.599573 2.446115 3.971484 3.541803l440.803025 440.803025c18.938721 18.936675 49.644575 18.936675 68.587388 0l11.869438-11.872507c18.939744-18.937698 18.939744-49.646621 0-68.586365L379.637656 519.019961z" fill="#333333" p-id="3198"></path></svg>