<svg xmlns="http://www.w3.org/2000/svg" width="259.961" height="200" class="icon" viewBox="0 0 1331 1024"><path fill="#3d3d3d" d="M1076.561 1024H252.105a103.43 103.43 0 0 1-103.433-104.183V629.23a28.158 28.158 0 0 1 56.316 0v290.587a47.305 47.305 0 0 0 47.117 47.117h824.456a47.305 47.305 0 0 0 47.117-47.117V638.24a28.158 28.158 0 0 1 56.315 0v281.577A103.43 103.43 0 0 1 1076.561 1024m-899.73-612.71a28.16 28.16 0 0 1-28.159-28.158v-279.7A103.43 103.43 0 0 1 252.105 0h824.456a103.43 103.43 0 0 1 103.432 103.432v277.072a28.158 28.158 0 0 1-56.315 0V103.432a47.305 47.305 0 0 0-47.117-47.117H252.105a47.305 47.305 0 0 0-47.117 47.117v279.7a28.16 28.16 0 0 1-28.158 28.157"/><path fill="#42b721" d="M1293.563 554.518H37.543a37.544 37.544 0 0 1 0-75.087h1256.02a37.544 37.544 0 0 1 0 75.087" class="selected" data-spm-anchor-id="a313x.search_index.0.i53.26d33a81wfoRWj"/></svg>