<svg xmlns="http://www.w3.org/2000/svg" width="200" height="200" class="icon" viewBox="0 0 1024 1024"><path fill="#a6a6a6" d="M434.042 44.207c47.514 0 92.97 9.26 136.274 27.872s80.623 43.492 111.956 74.731c31.24 31.24 56.212 68.558 74.731 111.956 18.52 43.305 27.872 88.76 27.872 136.274 0 40.78-6.64 79.875-19.922 117.194-13.281 37.318-32.268 71.27-56.773 101.667l221.387 221.106c7.482 7.483 11.223 16.742 11.223 27.685 0 11.13-3.74 20.484-11.13 27.873-7.389 7.388-16.648 11.13-27.872 11.13-10.943 0-20.202-3.742-27.685-11.224L652.997 669.084c-30.49 24.599-64.349 43.492-101.667 56.773-37.32 13.282-76.415 19.922-117.194 19.922-47.514 0-92.97-9.26-136.274-27.872s-80.623-43.491-111.956-74.73c-31.24-31.24-56.212-68.558-74.73-111.956-18.52-43.305-27.873-88.76-27.873-136.274s9.26-92.876 27.872-136.274c18.613-43.305 43.492-80.624 74.731-111.956 31.24-31.24 68.558-56.212 111.956-74.731 43.305-18.52 88.667-27.779 136.18-27.779m0 77.911c-36.944 0-72.299 7.202-105.97 21.606s-62.759 33.858-87.077 58.176-43.772 53.406-58.175 87.077c-14.404 33.67-21.606 69.025-21.606 105.97s7.202 72.299 21.606 105.97c14.403 33.67 33.858 62.759 58.175 87.076 24.412 24.318 53.406 43.773 87.077 58.176 33.671 14.404 69.026 21.606 105.97 21.606s72.3-7.202 105.97-21.606c33.671-14.403 62.76-33.858 87.077-58.176 24.412-24.411 43.772-53.405 58.176-87.076s21.606-69.026 21.606-105.97-7.202-72.3-21.606-105.97-33.858-62.76-58.176-87.077c-24.318-24.412-53.406-43.772-87.077-58.176s-69.025-21.606-105.97-21.606m0 0"/></svg>