<?xml version="1.0" standalone="no"?><!DOCTYPE svg PUBLIC "-//W3C//DTD SVG 1.1//EN" "http://www.w3.org/Graphics/SVG/1.1/DTD/svg11.dtd"><svg t="1752821186926" class="icon" viewBox="0 0 1024 1024" version="1.1" xmlns="http://www.w3.org/2000/svg" p-id="7718" xmlns:xlink="http://www.w3.org/1999/xlink" width="200" height="200"><path d="M512 1024C229.678545 1024 0 794.321455 0 512S229.678545 0 512 0s512 229.678545 512 512-229.678545 512-512 512z m0-960.093091C264.913455 63.906909 63.906909 264.913455 63.906909 512S264.913455 960.093091 512 960.093091 960.093091 759.086545 960.093091 512 759.086545 63.906909 512 63.906909z m184.645818 501.364364c18.059636 0 32.861091 14.778182 32.861091 32.837818s-14.801455 32.861091-32.861091 32.861091H543.185455v103.866182c0 21.969455-17.966545 39.936-39.959273 39.936a40.029091 40.029091 0 0 1-39.936-39.936v-103.866182h-135.936a32.954182 32.954182 0 0 1-32.861091-32.861091c0-18.059636 14.778182-32.837818 32.861091-32.837818h135.936v-85.224728h-141.149091a32.954182 32.954182 0 0 1-32.861091-32.86109c0-18.059636 14.778182-32.837818 32.861091-32.837819h128.581818l-127.604364-123.392a31.976727 31.976727 0 0 1 44.427637-45.940363l139.124363 134.539636 139.124364-134.539636a31.953455 31.953455 0 1 1 44.427636 45.940363l-127.58109 123.392h128.791272c18.059636 0 32.861091 14.778182 32.861091 32.837819 0 18.082909-14.801455 32.861091-32.861091 32.86109h-148.247272v85.224728h153.460363z" fill="#707070" p-id="7719"></path></svg>