<svg xmlns="http://www.w3.org/2000/svg" width="200" height="200" class="icon" viewBox="0 0 1024 1024"><path fill="#26334f" d="M926.72 593.92c-20.48-5.12-40.96 5.12-46.08 25.6-46.08 168.96-199.68 286.72-378.88 286.72S168.96 788.48 122.88 614.4c-5.12-20.48-25.6-30.72-46.08-25.6s-30.72 25.6-25.6 46.08c56.32 199.68 240.64 343.04 450.56 343.04S896 839.68 952.32 640c5.12-20.48-5.12-40.96-25.6-46.08m15.36-235.52C875.52 174.08 701.44 46.08 501.76 46.08S128 168.96 61.44 353.28c-5.12 25.6-15.36 56.32-15.36 81.92-5.12 20.48 10.24 40.96 25.6 46.08 20.48 5.12 40.96-10.24 40.96-30.72 5.12-25.6 10.24-46.08 20.48-71.68 56.32-153.6 204.8-256 368.64-256 168.96 0 317.44 107.52 373.76 261.12 5.12 20.48 15.36 46.08 15.36 66.56 5.12 20.48 20.48 30.72 40.96 30.72 20.48-5.12 30.72-20.48 30.72-40.96 0-30.72-10.24-56.32-20.48-81.92"/><path fill="#26334f" d="M358.4 578.56c-20.48 0-35.84 15.36-35.84 35.84s15.36 35.84 35.84 35.84h122.88v97.28c0 20.48 15.36 35.84 35.84 35.84s35.84-15.36 35.84-35.84v-97.28h117.76c20.48 0 35.84-15.36 35.84-35.84s-15.36-35.84-35.84-35.84H552.96v-56.32h117.76c20.48 0 35.84-15.36 35.84-35.84s-15.36-35.84-35.84-35.84H552.96v-10.24l148.48-97.28 5.12-5.12c10.24-5.12 10.24-25.6 0-40.96s-30.72-20.48-51.2-10.24L512 378.88l-122.88-92.16-5.12-5.12c-15.36-5.12-35.84 0-46.08 15.36s-5.12 40.96 10.24 51.2l133.12 92.16v10.24H358.4c-20.48 0-35.84 15.36-35.84 35.84s15.36 35.84 35.84 35.84h122.88v56.32z"/></svg>