<svg xmlns="http://www.w3.org/2000/svg" width="200" height="200" class="icon" viewBox="0 0 1024 1024"><path fill="#a6a6a6" d="M832 364.8H684.8s19.2-64 32-179.2C723.2 128 678.4 70.4 614.4 64h-12.8c-51.2 0-83.2 32-102.4 76.8l-38.4 96q-48 96-76.8 115.2c-25.6 12.8-121.6 12.8-128 12.8H128c-38.4 0-64 25.6-64 57.6v480c0 32 25.6 57.6 64 57.6h646.4c96 0 121.6-64 134.4-153.6L960 499.2c6.4-70.4-6.4-134.4-128-134.4M256 902.4H128v-480h128zm640-409.6L844.8 800C832 857.6 832 902.4 768 902.4H320v-480c44.8 0 70.4-6.4 89.6-19.2 32-12.8 64-64 108.8-147.2 25.6-64 38.4-96 44.8-102.4 6.4-19.2 19.2-32 44.8-32h6.4c32 0 44.8 32 44.8 51.2-12.8 102.4-32 166.4-32 166.4l-25.6 83.2h243.2c19.2 0 32 0 44.8 12.8s6.4 38.4 6.4 57.6"/></svg>