<?xml version="1.0" standalone="no"?><!DOCTYPE svg PUBLIC "-//W3C//DTD SVG 1.1//EN" "http://www.w3.org/Graphics/SVG/1.1/DTD/svg11.dtd"><svg t="1752383369949" class="icon" viewBox="0 0 1024 1024" version="1.1" xmlns="http://www.w3.org/2000/svg" p-id="1756" xmlns:xlink="http://www.w3.org/1999/xlink" width="200" height="200"><path d="M 915.17 234.67 c 24.73 0 44.79 -17.92 44.79 -40 s -20.06 -40 -44.79 -40 H 108.81 c -24.74 0 -44.81 17.91 -44.81 40 s 20.07 40 44.81 40 Z M 915.17 552 c 24.73 0 44.79 -17.93 44.79 -40 s -20.02 -40 -44.79 -40 H 460.81 c -24.74 0 -44.81 17.91 -44.81 40 s 20.07 40 44.81 40 Z M 70.33 498.18 a 18.73 18.73 0 0 0 -1.74 26.32 c 0.46 0.58 1.16 1.16 1.74 1.75 L 262.64 694 a 9.39 9.39 0 0 0 15.5 -7.11 V 337.08 a 9.34 9.34 0 0 0 -15.5 -7 Z M 108.81 789.33 c -24.74 0 -44.81 17.92 -44.81 40 s 20.07 40 44.81 40 H 915.17 c 24.73 0 44.79 -17.91 44.79 -40 s -20.06 -40 -44.79 -40 Z" fill="#999999" p-id="1757"></path></svg>